<svg xmlns="http://www.w3.org/2000/svg" version="1.1" xmlns:xlink="http://www.w3.org/1999/xlink" xmlns:svgjs="http://svgjs.com/svgjs" width="1440" height="560" preserveAspectRatio="none" viewBox="0 0 1440 560"><g mask="url(&quot;#SvgjsMask1712&quot;)" fill="none"><rect width="1440" height="560" x="0" y="0" fill="url(#SvgjsRadialGradient1713)"></rect><path d="M1536 560L0 560 L0 330.65Q45.43 256.08, 120 301.51Q163.91 273.42, 192 317.34Q235.16 288.5, 264 331.65Q284.02 279.67, 336 299.69Q366.34 258.03, 408 288.38Q455.38 263.76, 480 311.14Q533.75 244.88, 600 298.63Q665.31 291.94, 672 357.24Q726.25 291.49, 792 345.74Q832.9 266.64, 912 307.54Q966.49 242.03, 1032 296.52Q1105.05 249.56, 1152 322.61Q1204.05 254.66, 1272 306.71Q1324.05 286.76, 1344 338.81Q1351.28 274.09, 1416 281.37Q1470.06 215.43, 1536 269.49z" fill="#182f5d"></path><path d="M1464 560L0 560 L0 339.44Q75.26 342.7, 72 417.96Q116.67 390.63, 144 435.3Q163.94 335.24, 264 355.17Q333.56 304.73, 384 374.29Q434.1 352.39, 456 402.5Q471.57 346.07, 528 361.65Q555.43 317.08, 600 344.51Q685.44 309.95, 720 395.39Q786.68 342.07, 840 408.76Q881.69 330.45, 960 372.15Q1003.66 295.81, 1080 339.47Q1175.82 315.29, 1200 411.11Q1211.07 350.18, 1272 361.25Q1340.95 310.21, 1392 379.16Q1436.72 351.88, 1464 396.61z" fill="#25467d"></path><path d="M1512 560L0 560 L0 486.68Q31.27 445.95, 72 477.22Q127.06 460.28, 144 515.33Q155.55 454.88, 216 466.44Q242.28 420.72, 288 447Q380.59 419.59, 408 512.18Q419.88 404.06, 528 415.94Q566.79 382.73, 600 421.52Q648.12 397.64, 672 445.76Q723.55 425.31, 744 476.86Q789.99 450.85, 816 496.84Q841.13 401.97, 936 427.1Q1011.3 382.4, 1056 457.7Q1128.44 410.14, 1176 482.59Q1194.07 428.65, 1248 446.72Q1296.64 375.36, 1368 424Q1430.77 414.77, 1440 477.54Q1482.11 447.64, 1512 489.75z" fill="#356cb1"></path><path d="M1464 560L0 560 L0 542.73Q70.87 493.6, 120 564.47Q185.92 510.39, 240 576.32Q263.4 527.73, 312 551.13Q328.47 495.6, 384 512.06Q457.09 465.15, 504 538.24Q569.19 483.43, 624 548.63Q665.44 470.07, 744 511.51Q792.83 488.34, 816 537.16Q867.28 516.44, 888 567.72Q901.16 508.88, 960 522.04Q1032.34 474.38, 1080 546.71Q1121.26 515.98, 1152 557.24Q1183.25 468.49, 1272 499.73Q1314.31 470.04, 1344 512.34Q1427.81 476.15, 1464 559.97z" fill="rgba(186, 186, 186, 1)"></path></g><defs><mask id="SvgjsMask1712"><rect width="1440" height="560" fill="#ffffff"></rect></mask><radialGradient cx="50%" cy="100%" r="912.14" gradientUnits="userSpaceOnUse" id="SvgjsRadialGradient1713"><stop stop-color="#0e2a47" offset="0"></stop><stop stop-color="rgba(1, 119, 108, 0.82)" offset="1"></stop></radialGradient></defs></svg>