<svg xmlns="http://www.w3.org/2000/svg" version="1.1" xmlns:xlink="http://www.w3.org/1999/xlink" xmlns:svgjs="http://svgjs.com/svgjs" width="1440" height="560" preserveAspectRatio="none" viewBox="0 0 1440 560"><g mask="url(&quot;#SvgjsMask1580&quot;)" fill="none"><rect width="1440" height="560" x="0" y="0" fill="url(#SvgjsLinearGradient1581)"></rect><path d="M1536 560L0 560 L0 306.85Q51.13 237.99, 120 289.12Q144.37 193.49, 240 217.85Q283.81 189.66, 312 233.46Q380.33 181.79, 432 250.12Q506.25 204.38, 552 278.63Q574.79 181.43, 672 204.22Q715.29 175.51, 744 218.81Q828.65 183.47, 864 268.12Q910.13 242.25, 936 288.37Q952.71 233.08, 1008 249.79Q1056.26 178.05, 1128 226.3Q1190.27 216.57, 1200 278.84Q1248.79 255.63, 1272 304.41Q1289.2 249.62, 1344 266.82Q1345.06 195.88, 1416 196.94Q1467.87 128.81, 1536 180.67z" fill="#182f5d"></path><path d="M1488 560L0 560 L0 388.39Q69.25 337.64, 120 406.9Q121.95 288.85, 240 290.8Q280.81 259.62, 312 300.43Q385.22 253.65, 432 326.88Q470.83 245.71, 552 284.54Q642.19 254.73, 672 344.92Q707 259.92, 792 294.92Q841.9 272.83, 864 322.73Q946.47 285.2, 984 367.67Q1036.88 348.55, 1056 401.42Q1067.86 293.28, 1176 305.14Q1227.98 237.13, 1296 289.11Q1363.47 284.58, 1368 352.04Q1417.05 281.09, 1488 330.14z" fill="#25467d"></path><path d="M1464 560L0 560 L0 387.91Q83.3 399.21, 72 482.5Q141.97 432.47, 192 502.43Q209.76 448.19, 264 465.95Q301.31 383.26, 384 420.58Q436.66 353.24, 504 405.89Q576.77 358.66, 624 431.43Q689.48 376.91, 744 442.39Q788.71 367.1, 864 411.8Q951.38 379.19, 984 466.57Q1013.97 424.54, 1056 454.51Q1051.84 378.35, 1128 374.19Q1238.33 364.51, 1248 474.84Q1249.78 404.62, 1320 406.39Q1345.38 359.77, 1392 385.16Q1420.88 342.04, 1464 370.91z" fill="#356cb1"></path><path d="M1512 560L0 560 L0 536.3Q65.66 529.96, 72 595.62Q81.07 484.69, 192 493.76Q258.8 440.56, 312 507.35Q378.79 454.14, 432 520.93Q493.31 510.24, 504 571.55Q529.53 477.08, 624 502.6Q677.65 436.25, 744 489.9Q825.74 451.63, 864 533.37Q930.59 479.96, 984 546.56Q1001.25 491.81, 1056 509.06Q1099.06 432.12, 1176 475.17Q1221.46 448.63, 1248 494.1Q1291.69 465.8, 1320 509.49Q1390.98 508.47, 1392 579.45Q1404.88 472.34, 1512 485.22z" fill="rgba(186, 186, 186, 1)"></path></g><defs><mask id="SvgjsMask1580"><rect width="1440" height="560" fill="#ffffff"></rect></mask><linearGradient x1="50%" y1="100%" x2="50%" y2="0%" gradientUnits="userSpaceOnUse" id="SvgjsLinearGradient1581"><stop stop-color="#0e2a47" offset="0"></stop><stop stop-color="rgba(9, 9, 11, 1)" offset="1"></stop></linearGradient></defs></svg>