<svg xmlns="http://www.w3.org/2000/svg" version="1.1" xmlns:xlink="http://www.w3.org/1999/xlink" xmlns:svgjs="http://svgjs.com/svgjs" width="1440" height="560" preserveAspectRatio="none" viewBox="0 0 1440 560"><g mask="url(&quot;#SvgjsMask1016&quot;)" fill="none"><rect width="1440" height="560" x="0" y="0" fill="url(#SvgjsLinearGradient1017)"></rect><circle r="8.285" cx="1205.875" cy="85.41499999999999" filter="url(#SvgjsFilter1018)" fill="rgba(51, 121, 194, 0.58)"></circle><circle r="5.06" cx="62.17" cy="39.89" filter="url(#SvgjsFilter1018)" fill="rgba(51, 121, 194, 0.58)"></circle><circle r="8.31" cx="869.3299999999999" cy="349.73" filter="url(#SvgjsFilter1018)" fill="rgba(51, 121, 194, 0.58)"></circle><circle r="9.06" cx="1331.22" cy="81.61" filter="url(#SvgjsFilter1018)" fill="rgba(51, 121, 194, 0.58)"></circle><circle r="8.215" cx="1376.865" cy="152.415" filter="url(#SvgjsFilter1018)" fill="rgba(51, 121, 194, 0.58)"></circle><circle r="9.31" cx="576.28" cy="456.42" filter="url(#SvgjsFilter1018)" fill="rgba(51, 121, 194, 0.58)"></circle><circle r="5.595" cx="1053.815" cy="157.325" filter="url(#SvgjsFilter1018)" fill="rgba(51, 121, 194, 0.58)"></circle><circle r="4.91" cx="776.0899999999999" cy="425.08000000000004" filter="url(#SvgjsFilter1018)" fill="rgba(51, 121, 194, 0.58)"></circle><circle r="7.125" cx="956.415" cy="349.035" filter="url(#SvgjsFilter1018)" fill="rgba(51, 121, 194, 0.58)"></circle><circle r="5.38" cx="619.16" cy="24.33" filter="url(#SvgjsFilter1018)" fill="rgba(51, 121, 194, 0.58)"></circle><circle r="9.22" cx="1106.65" cy="403.94000000000005" filter="url(#SvgjsFilter1018)" fill="rgba(51, 121, 194, 0.58)"></circle><circle r="5.47" cx="493.02000000000004" cy="294.1" filter="url(#SvgjsFilter1018)" fill="rgba(51, 121, 194, 0.58)"></circle><circle r="6.325" cx="1179.855" cy="348.065" filter="url(#SvgjsFilter1018)" fill="rgba(51, 121, 194, 0.58)"></circle><circle r="7.25" cx="490.07" cy="98.54" filter="url(#SvgjsFilter1018)" fill="rgba(51, 121, 194, 0.58)"></circle><circle r="5.665" cx="711.535" cy="14.995000000000001" filter="url(#SvgjsFilter1018)" fill="rgba(51, 121, 194, 0.58)"></circle><circle r="7.915" cx="1342.345" cy="512.615" filter="url(#SvgjsFilter1018)" fill="rgba(51, 121, 194, 0.58)"></circle><circle r="9.055" cx="855.6949999999999" cy="120.305" filter="url(#SvgjsFilter1018)" fill="rgba(51, 121, 194, 0.58)"></circle><circle r="5.81" cx="458.99" cy="391.24" filter="url(#SvgjsFilter1018)" fill="rgba(51, 121, 194, 0.58)"></circle><circle r="6.95" cx="674.33" cy="168.54" filter="url(#SvgjsFilter1018)" fill="rgba(51, 121, 194, 0.58)"></circle><circle r="9.255" cx="1068.835" cy="270.755" filter="url(#SvgjsFilter1018)" fill="rgba(51, 121, 194, 0.58)"></circle><path d="M1091.4 259.7L1064.3 224.1 1066.8 208 1075.9 220C1076.6 221.5 1078.3 221.4 1079.9 220.8 1080.7 219.9 1081.1 217.9 1080.2 217.1L1068 200.3 1070 184.3 1082.5 194.4 1084.9 215.2C1084.9 215.2 1085.1 215.7 1085.1 215.7 1085.5 216.7 1086.9 217.3 1088.2 217.4 1089.7 216.8 1090.6 215.9 1090.5 214.1L1088.6 199.1 1101.2 209.2 1106.9 253.4C1106.9 253.4 1106.6 254.1 1106.6 254.1 1107 255.1 1108.5 255.7 1109.8 255.8 1111.5 255.7 1112.7 254.1 1112 252.5L1107.3 213.9 1123 225.7 1125.1 243C1125.1 243 1125.1 243 1125.3 243.5 1125.7 244.6 1126.7 245.4 1127.9 245.5 1129.5 244.9 1130.8 243.7 1130.7 241.9L1129.1 230.5 1140.5 239.2C1141.6 240.5 1143.2 239.9 1144 239 1145.4 237.8 1145.2 236.1 1143.6 234.9L1132.7 226 1143.9 225.1C1145.4 224.5 1146.8 223.4 1146.1 221.8 1146 220 1145.1 219.2 1143.3 219.3L1126.1 221.5 1110.9 209.5 1150 204.5C1151.3 204.6 1152.4 203 1152.3 201.2 1151.9 200.2 1150.7 198.8 1149 198.9L1104.8 204.7 1092.3 194.7 1107.2 192.8C1109 192.7 1109.6 191.3 1109.5 189.5 1109.6 188.3 1107.9 187.1 1106.7 187L1086.1 189.9 1073.1 180.1 1088.1 174 1107.1 182C1108.6 182.6 1110.1 182 1110.7 180.6 1111.6 179.6 1110.7 177.5 1109.3 176.9L1095.4 171 1110.5 165 1151.5 182.8C1153 183.4 1154.5 182.8 1155.1 181.3 1155.8 179.9 1155.1 178.3 1153.7 177.7L1117.7 162 1135.4 154.9 1151.4 161.7C1152.9 162.3 1154.4 161.7 1155.1 160.2 1155.7 158.8 1155 157.2 1153.6 156.6L1143.2 151.7 1156.2 146.5C1157.7 145.9 1158.3 144.4 1157.7 142.8 1157.1 141.3 1155.6 140.7 1154.1 141.3L1141.1 146.5 1145.4 136.3C1146 134.9 1145.4 133.3 1143.9 132.7S1140.9 132.7 1140.3 134.2L1133.8 149.5 1115.6 156.8 1130.8 121.1C1131.4 119.6 1130.8 118.1 1129.3 117.5 1127.9 116.8 1126.3 117.5 1125.7 118.9L1108.4 159.8 1093.3 165.8 1099.2 152C1099.8 150.5 1099.2 149 1097.7 148.4 1096.3 147.7 1094.7 148.4 1094.1 149.8L1086 168.8 1071.5 174.7 1073.7 159.3 1090.3 146.5C1091.2 145.6 1091.6 143.6 1090.6 142.8 1089.5 141.4 1088.2 141.3 1086.7 142L1074.6 151 1076.9 135.6 1112.4 108.6C1113.8 107.4 1113.9 106.2 1113.3 104.6 1112.1 103.3 1110.3 103.4 1109.3 103.8L1077.8 127.4 1080.8 108.1 1094.2 97.8C1095.8 97.2 1095.7 95.4 1095 93.9 1094.1 93.1 1092.1 92.6 1090.8 93.8L1081.9 100.4 1083.6 86.4C1084.2 85 1083 83.6 1081 83.2 1079.8 83.1 1078.5 84.3 1078.4 85.5L1076.2 99.7 1069.4 90.3C1068.3 89 1066.5 89.1 1065.7 90 1064.1 90.7 1064 91.9 1064.4 93 1064.7 93.5 1064.7 93.5 1064.9 94L1075.1 107.4 1072.1 126.7 1048.6 95.7C1048 94.2 1046.3 94.3 1044.7 94.9 1043.9 95.8 1043.8 97.1 1044.2 98.1 1044.4 98.6 1044.4 98.6 1044.4 98.6L1071.1 134.9 1068.9 150.3 1059.8 138.3C1058.7 137 1057.4 136.9 1055.9 137.5 1055 138.4 1054.4 139.9 1054.8 140.9 1055.1 141.4 1055.1 141.4 1055.3 142L1068 158.6 1065.8 174 1053.5 164.4 1050.6 143.9C1050.5 142.1 1048.8 140.9 1047.6 140.8 1046 141.5 1044.7 142.6 1045.3 144.2L1047.1 159.2 1034.3 149.8 1028.8 104.9C1028.9 103.7 1027.3 102.6 1026 102.5 1024.4 103.1 1023.1 104.2 1023.2 106L1027.9 144.6 1012.8 132.6 1010.9 115.8C1010.8 114 1009.1 112.9 1007.5 113.5 1006.3 113.4 1004.9 114.6 1005 116.4L1006.6 127.8 995.3 119.1C994.3 118.3 992.6 118.4 991.2 119.5 990.9 120.3 990.8 121.5 991.2 122.5 991.2 122.5 991.4 123.1 991.7 123.6L1003 132.3 991.6 133.9C990.3 133.8 989.2 135.4 989.1 136.7 989.3 137.2 989.3 137.2 989.3 137.2 989.9 138.8 991.4 139.4 992.4 139L1009.2 137 1024.8 148.8 985.7 153.8C984.2 154.4 983.4 155.3 983.5 157.1 983.5 157.1 983.7 157.6 983.7 157.6 984.1 158.7 985 159.5 986.8 159.4L1031.2 154.1 1043.5 163.6 1028.5 165.5C1027 166.1 1025.6 167.2 1026.2 168.8 1025.7 169 1025.9 169.5 1025.9 169.5 1026.4 170.6 1027.8 171.2 1029.1 171.3L1049.6 168.4 1062.2 178.4 1047.6 184.3 1028.7 176.3C1027.2 175.7 1025.1 176.5 1024.5 178 1024.4 179.2 1025 180.8 1026 181.6L1040.4 187.3 1025.3 193.3 984.5 176C983 175.4 981.5 176 980.8 177.5 980.2 178.9 980.8 180.5 982.3 181.1L1018 196.3 999.9 203.6 984.5 197.1C983.1 196.5 981.5 197.1 980.9 198.6S980.9 201.6 982.4 202.2L992.6 206.6 979.6 211.8C978 212.4 977.4 213.9 978.1 215.5 978.7 217 980.1 217.6 981.7 217L994.7 211.8 990.6 222.5C990.3 223.2 989.9 223.9 990.2 224.5 990.4 225 991.3 225.8 992 226.1 993.5 226.7 995 226.1 995.7 224.6L1002 208.8 1020.1 201.5 1005.2 237.7C1004.9 238.4 1004.6 239.2 1004.8 239.7 1005 240.2 1005.9 241 1006.6 241.3 1008.1 242 1009.7 241.3 1010.3 239.9L1027.4 198.5 1042.4 192.4 1036.1 206.5C1035.7 207.2 1036.2 208.3 1036.4 208.8 1036.6 209.3 1036.8 209.8 1037.5 210.1 1039 210.8 1041.1 209.9 1041.2 208.7L1049.7 189.5 1064.3 183.6 1062.2 199.6 1045.4 211.8C1044.6 212.7 1044 214.2 1044.4 215.2 1044.6 215.7 1044.6 215.7 1045.1 215.5 1045.8 217.1 1047.7 217.5 1049.1 216.3L1061.1 207.2 1059.1 223.2 1022.8 249.9C1022 250.9 1021.9 252.1 1022.3 253.1 1022.5 253.7 1022.5 253.7 1022.5 253.7 1023.6 255 1025.1 255.6 1026.5 254.5L1058 230.9 1054.9 250.2 1041.6 260.5C1040.2 261.6 1040.1 262.9 1040.5 263.9 1040.5 263.9 1040.7 264.4 1040.7 264.4 1041.9 265.8 1043.7 265.7 1044.7 265.2L1053.8 257.9 1051.7 272.1C1051.9 272.6 1052.1 273.1 1052.3 273.6 1052.5 274.1 1053.5 275 1054.2 275.3 1056 275.2 1057.5 274.5 1057.4 272.8L1059.5 258.6 1066.3 268C1067.5 269.3 1069.2 269.2 1070.3 268.8 1071.6 267.6 1071.5 265.9 1070.9 264.3L1060.7 250.9 1063.2 231.8 1086.6 262.8C1087.7 264.1 1089.7 264.5 1090.5 263.6 1091.9 262.5 1092.5 261 1091.4 259.7Z" fill="rgba(51, 121, 194, 0.58)"></path><path d="M639.1 321.3L626.9 373 586.4 397.5 585.3 350.2 622.3 312.1C622.3 312.1 622.6 311.5 622.6 311.5 623.2 310.4 622.7 308.7 621.9 307.5 620.5 306 618.2 306.2 617.3 307.9L585.1 341.3 584.5 318.4 598.6 303.5C598.6 303.5 598.9 302.9 598.9 302.9 599.5 301.8 599 300 598.2 298.9 596.8 297.4 594.5 297.6 593.6 299.3L583.7 309.2 583.5 292.3C583.6 290.9 581.6 289.1 580.2 289 578.2 288.7 577 290.9 576.9 292.3L577.1 309.2 567.2 299.4C565.8 297.9 563.5 298.1 562.6 299.8 561.1 301.2 561.3 303.5 563 304.4L577.9 318.4 577.9 341.1 544.5 308.9C543.1 307.4 540.8 307.6 539.9 309.3 538.4 310.6 538.6 312.9 540.3 313.9L578.4 350.8 579.5 398.1 537.4 375.1 522.5 323.8C522 322.1 520.3 321.1 518.5 321.6 516.8 322.1 515.9 323.8 516.4 325.6L529.6 370.7 509.4 359.7 503.8 340.6C503.3 338.8 501.6 337.9 499.9 338.4 498.1 338.9 497.2 340.6 497.7 342.3L501.5 355.4 485.8 346.8C484.4 345.3 482.4 346.3 481.4 348 480.5 349.7 481 351.4 482.7 352.4L497.3 360.4 484.3 364.2C482.5 364.7 481.6 366.4 482.1 368.1S484.3 370.8 486 370.2L505.2 364.7 525.4 375.7 480.2 388.9C478.4 389.4 477.5 391.1 478 392.9 478.5 394.6 480.2 395.5 482 395L533.2 380.1 574.7 402.8 534.3 427.4 484.1 415.1C482.1 414.8 480.6 416.2 479.7 417.8 479.3 419.8 480.7 421.3 482.4 422.2L527.5 433.1 507.9 445 488 439.9C486 439.6 484.5 440.9 483.6 442.6 483.2 444.6 484.6 446.1 485.7 446.7L499.4 449.8 485 458.7C483.8 459.5 482.6 461.8 484 463.3 485.3 464.7 487 465.7 488.5 464.3L502.9 455.4 499.8 469C499.4 471 500.8 472.5 501.9 473.1 503.3 473.2 505.1 472.6 505.7 471.5 505.7 471.5 506 471 506 471L511.1 451.1 530.7 439.2 519.8 484.4C519.5 486.4 520.8 487.8 522 488.5 523.4 488.5 525.1 488 525.7 486.9 525.7 486.9 526.1 486.3 526.1 486.3L538.3 434.7 578.8 410.1 579.8 457.4 542.9 495.6C541.4 496.9 541.6 499.2 543.3 500.2 544.7 501.6 547 501.4 547.9 499.8L580.1 466.3 580.6 489.3 566.6 504.2C565.1 505.6 565.3 507.9 567 508.8 568.4 510.3 570.7 510.1 571.6 508.4L581.4 498.4 581.7 515.4C581.6 516.8 583.5 518.6 585 518.6 586.4 518.7 587.6 517.9 588.2 516.7 588.5 516.2 588.8 515.6 588.6 514.8L588.3 497.8 598.3 507.7C599.7 509.2 602 509 602.9 507.3 602.9 507.3 603.2 506.7 603.2 506.7 603.8 505.6 603.3 503.9 602.5 502.7L587.5 488.7 587 465.7 620.4 497.9C621.8 499.4 624.1 499.2 625 497.5 625 497.5 625.3 497 625.3 497 625.9 495.8 625.4 494.1 624.6 492.9L586.5 456 585.4 408.7 626.9 431.4 641.9 482.7C642.4 484.4 644.1 485.3 645.8 484.8 647.6 484.3 648.5 482.7 648 480.9L635.4 436 655.6 447.1 661.1 466.2C661.6 468 663.3 468.9 665.1 468.4S667.7 466.2 667.2 464.5L663.4 451.4 678 459.4C679.7 460.3 681.4 459.8 682.4 458.2 683.3 456.5 682.8 454.7 681.1 453.8L666.5 445.8 679.5 442C680.4 441.8 681.3 441.5 681.9 440.4S682.2 438.4 682 437.5C681.5 435.8 679.8 434.9 678.1 435.4L658.9 440.9 638.7 429.9 683.9 416.7C684.8 416.4 685.7 416.2 686.3 415.1 686.6 414.5 686.6 413.1 686.4 412.2 685.9 410.5 684.2 409.5 682.5 410L631.2 425 589.7 402.2 630.1 377.7 681.8 390C683.2 390 685 389.5 685.6 388.4 685.6 388.4 685.9 387.8 685.9 387.8 686.2 385.8 684.9 384.4 683.7 383.7L638.6 372.9 658.2 361 678.1 366.1C679.5 366.1 681.3 365.6 681.9 364.5 681.9 364.5 682.2 363.9 682.2 363.9 682.6 361.9 681.2 360.4 680.1 359.8L666.4 356.7 680.8 347.8C681.1 347.3 682 347 682.3 346.4 682.9 345.3 683 343.9 682.1 342.7 680.8 341.2 679.1 340.3 677.6 341.7L663.2 350.6 666.3 337C666.7 335 665.3 333.5 664.2 332.9 662.2 332.5 660.7 333.9 660.1 335L655 354.9 635.4 366.7 646.3 321.6C646.6 319.6 645.3 318.1 644.1 317.5 641.5 318.3 639.5 319.3 639.1 321.3Z" fill="rgba(51, 121, 194, 0.58)"></path><path d="M1424.3 332.9L1403.8 316 1401.7 292.4 1423.2 302.4 1432.1 327.4C1432.1 327.4 1432.3 327.6 1432.3 327.6 1432.7 328.2 1433.6 328.3 1434.3 328.2 1435.2 327.9 1435.6 326.8 1435.1 326.1L1427.2 304.2 1437.6 309 1441.2 318.6C1441.2 318.6 1441.4 318.9 1441.4 318.9 1441.8 319.4 1442.7 319.6 1443.4 319.5 1444.3 319.2 1444.8 318.1 1444.2 317.3L1441.9 310.7 1449.6 314.3C1450.2 314.7 1451.4 314.2 1451.8 313.6 1452.4 312.8 1451.6 311.7 1451 311.4L1443.4 307.7 1450 305.5C1450.9 305.2 1451.4 304.1 1450.8 303.3 1450.5 302.3 1449.4 301.9 1448.6 302.5L1439.1 306.1 1428.9 301.1 1450.7 293.2C1451.7 292.9 1452.1 291.8 1451.6 291 1451.3 290.1 1450.2 289.6 1449.4 290.2L1424.4 299.1 1403 289.2 1422.6 275.4 1448.9 280C1449.8 280.2 1450.6 279.6 1450.7 278.7 1450.9 277.8 1450.3 277 1449.5 276.9L1426.3 272.8 1435.7 266.2 1445.5 267.9C1446.4 268.1 1447.2 267.5 1447.3 266.6 1447.5 265.7 1447 265 1446.1 264.8L1439.4 263.6 1446.7 258.5C1447.7 258.2 1447.7 257 1447.1 256.3 1446.5 255.5 1445.7 255.3 1444.9 255.9L1438.1 260.6 1439.2 254C1439.4 253.1 1438.8 252.3 1437.9 252.1S1436.3 252.5 1436.1 253.4L1434.4 263.2 1425 269.8 1429 246.7C1429.2 245.8 1428.6 245 1427.7 244.8 1426.8 244.7 1426.1 245.2 1425.9 246.1L1421.3 272.4 1401.9 286 1399.8 262.4 1416.4 242.6C1417 241.8 1416.7 240.8 1416.2 240 1415.4 239.4 1414.4 239.7 1413.6 240.3L1398.8 258.1 1397.8 246.7 1404.4 238.9C1405 238.1 1404.7 237.1 1404.2 236.3 1403.4 235.7 1402.4 236 1401.9 236.4L1397.5 241.8 1396.7 233.4C1396.6 232.7 1395.8 231.6 1394.8 231.9 1393.9 232.2 1393.1 232.8 1393.4 233.7L1394.2 242.2 1388.8 237.8C1388 237.2 1387 237.4 1386.5 237.8 1386.1 238.4 1386 239.3 1386.3 239.9 1386.3 239.9 1386.5 240.1 1386.5 240.1L1394.3 246.8 1395.3 258.2 1377.5 243.4C1376.6 242.8 1375.7 243 1375.1 243.4 1374.8 244 1374.7 244.9 1375 245.5 1375 245.5 1375.2 245.7 1375.2 245.7L1395.7 262.6 1397.7 286.2 1376.3 276.2 1367.3 251.2C1367.1 250.3 1366 249.8 1365.2 250.4 1364.2 250.7 1363.8 251.8 1364.4 252.5L1372.2 274.4 1361.8 269.6 1358.2 260C1357.9 259 1356.9 258.6 1356.1 259.1 1355.1 259.4 1354.7 260.5 1355.2 261.3L1357.5 267.9 1349.9 264.3C1349.3 263.9 1348 264.4 1347.7 265 1347.4 265.7 1347.5 266.4 1347.8 266.9 1348 267.1 1348.2 267.4 1348.6 267.5L1356.3 271.1 1349.7 273.4C1348.7 273.7 1348.3 274.8 1348.8 275.6 1348.8 275.6 1349 275.8 1349 275.8 1349.4 276.3 1350.3 276.5 1351 276.4L1360.6 272.8 1371 277.6 1349.2 285.5C1348.2 285.8 1347.8 286.9 1348.3 287.6 1348.3 287.6 1348.5 287.9 1348.5 287.9 1348.9 288.4 1349.8 288.6 1350.5 288.5L1375.5 279.5 1396.9 289.5 1377.6 303.1 1351.3 298.5C1350.4 298.3 1349.6 298.9 1349.4 299.8 1349.3 300.7 1349.8 301.5 1350.7 301.6L1373.6 305.9 1364.2 312.5 1354.4 310.8C1353.5 310.6 1352.7 311.2 1352.6 312S1352.9 313.7 1353.8 313.9L1360.5 315.1 1353.7 319.8C1352.9 320.4 1352.8 321.3 1353.3 322.1 1353.9 322.8 1354.8 323 1355.6 322.5L1362.4 317.7 1361.2 324.4C1361.1 324.8 1361 325.2 1361.4 325.8S1362.2 326.4 1362.7 326.5C1363.6 326.6 1364.3 326.1 1364.5 325.2L1366.2 315.4 1375.6 308.7 1371.6 331.9C1371.5 332.4 1371.4 332.8 1371.8 333.3 1372 333.6 1372.6 333.9 1373.1 334 1373.9 334.2 1374.7 333.6 1374.9 332.7L1379.5 306.4 1398.9 292.8 1401 316.4 1384 336.9C1383.7 337.5 1383.5 338.4 1383.9 338.9 1383.9 338.9 1384.1 339.2 1384.1 339.2 1384.9 339.8 1385.9 339.5 1386.4 339.1L1401.2 321.3 1402.2 332.7 1395.6 340.5C1395.2 341.1 1395.1 342 1395.5 342.5 1395.5 342.5 1395.6 342.8 1395.6 342.8 1396.4 343.4 1397.4 343.1 1397.9 342.7L1402.3 337.3 1403.2 345.7C1403.3 346 1403.3 346.4 1403.5 346.7 1403.8 347.2 1404.5 347.6 1405.2 347.5 1406.1 347.2 1406.9 346.6 1406.6 345.6L1405.8 337.2 1411.2 341.6C1412 342.2 1413 341.9 1413.5 341.6 1414.1 340.8 1413.9 339.8 1413.5 339.3L1405.7 332.6 1404.7 321.2 1422.6 336C1423.4 336.6 1424.3 336.3 1424.9 336 1425.1 334.6 1425.1 333.5 1424.3 332.9Z" fill="rgba(51, 121, 194, 0.58)"></path><path d="M1034.6 541.1L1008.1 539.4 992.6 521.4 1015.9 517 1037.7 532.1C1037.7 532.1 1038 532.2 1038 532.2 1038.6 532.4 1039.4 532 1039.9 531.5 1040.6 530.7 1040.3 529.6 1039.4 529.3L1020.2 516.2 1031.5 514 1040 519.7C1040 519.7 1040.3 519.8 1040.3 519.8 1040.9 520 1041.7 519.6 1042.2 519.1 1042.9 518.3 1042.6 517.2 1041.7 516.9L1036 512.8 1044.3 511.3C1045 511.2 1045.7 510.1 1045.6 509.4 1045.6 508.4 1044.4 508 1043.7 508.1L1035.4 509.6 1039.4 503.9C1040 503.1 1039.7 501.9 1038.8 501.6 1038 501 1036.9 501.3 1036.6 502.2L1030.9 510.7 1019.8 512.6 1032.9 493.5C1033.5 492.7 1033.2 491.5 1032.3 491.2 1031.5 490.6 1030.4 490.9 1030.1 491.8L1015 513.7 991.8 518.1 999.7 495.4 1023.7 483.8C1024.5 483.4 1024.8 482.5 1024.4 481.7 1024 480.9 1023.1 480.6 1022.3 481L1001.1 491.2 1004.9 480.3 1013.9 476C1014.7 475.6 1015 474.7 1014.6 473.9 1014.2 473.1 1013.3 472.7 1012.5 473.1L1006.4 476.1 1009.3 467.6C1010 466.8 1009.3 465.9 1008.4 465.6 1007.5 465.3 1006.6 465.7 1006.3 466.6L1003.6 474.4 1000.6 468.3C1000.2 467.5 999.3 467.2 998.5 467.6S997.4 468.9 997.8 469.7L1002.1 478.7 998.3 489.5 988.1 468.4C987.7 467.5 986.8 467.2 986 467.6 985.2 468 984.8 468.9 985.2 469.7L996.8 493.8 989.1 516.1 973.6 498.2 975.5 472.4C975.5 471.4 974.7 470.8 973.8 470.5 972.8 470.5 972.2 471.3 971.8 472.2L970.2 495.3 962.7 486.6 963.6 476.4C963.6 475.4 962.8 474.8 961.9 474.5 960.9 474.5 960.3 475.3 960.1 475.9L959.7 482.8 954.1 476.5C953.6 476 952.4 475.6 951.7 476.4 951.1 477.2 950.8 478.1 951.6 478.7L957.2 485 950.2 484.6C949.2 484.6 948.6 485.4 948.4 486 948.5 486.7 948.9 487.5 949.5 487.8 949.5 487.8 949.8 487.9 949.8 487.9L960 488.7 967.4 497.4 944.3 495.8C943.3 495.8 942.7 496.6 942.5 497.2 942.5 497.9 942.9 498.7 943.5 498.9 943.5 498.9 943.8 499 943.8 499L970.3 500.8 985.8 518.7 962.5 523.2 940.7 508.1C939.9 507.5 938.8 507.8 938.5 508.7 937.8 509.5 938.1 510.6 939 510.9L958.2 524 946.9 526.2 938.4 520.5C937.6 519.9 936.5 520.2 936.2 521.1 935.5 521.9 935.8 523 936.7 523.3L942.4 527.3 934.1 528.8C933.4 528.9 932.7 530 932.8 530.7 932.9 531.5 933.4 532 934 532.2 934.3 532.3 934.6 532.4 935 532.2L943.3 530.7 939.3 536.4C938.7 537.2 939 538.3 939.9 538.6 939.9 538.6 940.2 538.7 940.2 538.7 940.8 538.9 941.6 538.6 942.1 538.1L947.8 529.5 959 527.4 945.9 546.5C945.3 547.3 945.6 548.4 946.5 548.7 946.5 548.7 946.8 548.8 946.8 548.8 947.4 549.1 948.2 548.7 948.7 548.2L963.8 526.3 987.1 521.9 979.3 544.2 955.2 555.8C954.4 556.2 954.1 557.1 954.5 558 954.9 558.8 955.8 559.1 956.6 558.7L977.7 548.8 973.9 559.6 964.9 564C964.1 564.4 963.8 565.3 964.2 566.1S965.5 567.2 966.3 566.8L972.4 563.9 969.7 571.7C969.4 572.6 969.7 573.5 970.7 573.8 971.6 574.1 972.4 573.7 972.7 572.8L975.4 564.9 978.4 571C978.6 571.4 978.8 571.9 979.4 572.1S980.4 572.1 980.8 571.9C981.6 571.5 981.9 570.6 981.5 569.8L977.2 560.8 981 549.9 991.2 571.1C991.4 571.5 991.6 571.9 992.2 572.1 992.5 572.2 993.2 572.2 993.7 572 994.5 571.6 994.8 570.7 994.4 569.8L982.8 545.8 990.6 523.4 1006 541.4 1004.2 567.9C1004.3 568.6 1004.7 569.4 1005.3 569.6 1005.3 569.6 1005.6 569.7 1005.6 569.7 1006.6 569.7 1007.3 568.9 1007.5 568.3L1009.1 545.1 1016.6 553.9 1015.7 564.1C1015.8 564.8 1016.2 565.6 1016.8 565.8 1016.8 565.8 1017.1 565.9 1017.1 565.9 1018.1 565.9 1018.7 565.1 1019 564.5L1019.4 557.5 1024.9 563.9C1025.2 564 1025.4 564.4 1025.7 564.5 1026.3 564.7 1027 564.6 1027.6 564.1 1028.2 563.3 1028.5 562.4 1027.7 561.8L1022.1 555.4 1029.1 555.8C1030.1 555.9 1030.7 555.1 1030.9 554.5 1030.9 553.4 1030.1 552.8 1029.5 552.6L1019.3 551.8 1011.9 543.1 1035 544.7C1036 544.7 1036.6 543.9 1036.9 543.3 1036.3 542.1 1035.6 541.2 1034.6 541.1Z" fill="rgba(51, 121, 194, 0.58)"></path><path d="M261.7 181.3L275.5 175.3 274.7 185.4C274.5 186.5 275.4 187.7 276.8 188.2 278.2 187.9 279.4 187.1 279.6 186L280.9 172.7 293.8 167.2 290.9 194.2C290.8 195.9 291.7 197.1 293 196.9 294.5 197.4 295.7 196.5 295.8 194.8L298.9 165.1 310.5 159.8 334.2 177 333.2 188.1 303.9 200.7C303.6 201.1 303.4 201.5 303.1 201.9 302.8 202.2 302.6 203.3 302.7 204 303.3 205.6 304.8 206.1 306 205.2L332.7 193.7 331.1 207.4 317.7 213.6C317.3 213.3 317 213.7 316.7 214.1 316.2 214.9 316 216 316.5 216.9 317 217.9 318.4 218.3 319.8 218.1L330.6 212.9 328.9 230.1C328.7 231.1 329.6 232.3 331 232.8 332.4 232.6 333.6 231.7 333.8 230.6L335.3 214.6 343.5 220.5C344.7 221.3 346.3 220.7 346.9 220 347.7 218.8 347.8 217.1 346.6 216.2L336.1 208.6 337.7 195 359.5 210.7C360.6 211.6 362 211.4 362.8 210.2 363.7 209 363.5 207.7 362.3 206.9L338.2 189.4 339.1 177.6 366.1 165.7 375 172.2 371.9 202.6C371.5 204 372.7 205.5 374.1 205.3 375.5 205.8 376.4 204.6 376.8 203.2L379.7 175.6 390.9 183.7 389.3 197.4C389.1 198.5 390.4 200 391.5 200.1S394.1 199 394.5 197.6L395.6 187.1 409.2 197C410.4 197.8 412 197.2 412.8 196.1 413.4 195.3 413.5 193.6 412.3 192.7L398.7 182.8 408.6 178.2C409.5 177.7 410.4 176.5 409.8 174.9 409.3 173.9 407.5 173.2 406.5 173.7L394 179.5 382.8 171.3 408.1 160C409.3 159.2 410.2 158 409.6 156.4 409.1 155.4 407.3 154.7 406.3 155.2L378.1 167.9 369.2 161.4 372 132.1 383 127.6 407.1 145.1C408.3 145.9 409.6 145.7 410.5 144.5 411.3 143.4 411.4 141.6 410.2 140.8L388.4 125 400.9 119.2 411.4 126.9C412.6 127.7 413.9 127.5 414.8 126.3 415.6 125.2 415.4 123.8 414.2 123L406.1 117.1 420.9 110.6C421.8 110.1 422.5 108.2 422.1 107.3 421.2 106.1 420 105.2 418.8 106.1L403.3 112.7 404.6 101.1C404.4 99.8 403.5 98.6 402.4 98.4 401.4 98.2 400.4 98.7 399.8 99.5 399.8 99.5 399.6 99.9 399.7 100.5L397.9 115.3 385.4 121 388 92.1C388.5 90.6 387.6 89.4 385.9 89.3 385.2 89.4 384.5 89.6 384 90.3 383.7 90.7 383.4 91.1 383.1 91.5L380.3 123.2 370 127.6 346.3 110.4 347.7 97.8 374.9 85.6C376.6 85 377 83.5 376.1 82.3 375.9 81 374.5 80.5 372.9 81.1L348.2 92.3 349.4 78.3 361.6 72.9C362.5 72.4 363 71 362.8 69.6 361.9 68.4 360.7 67.6 359.5 68.5L350.2 72.3 351.5 57.3C352 55.9 350.8 55.1 349.4 54.6 348.7 54.7 347.8 55.2 347.2 56 347.2 56 346.9 56.4 346.6 56.8L345.1 72.8 335.4 65.8C334.6 65.2 332.9 65.1 332 66.3 331.2 67.5 331.8 69.1 332.5 69.7L344.6 78.4 343.4 92.3 319.7 75.1C318.5 74.3 316.9 74.9 316 76.1S315.4 78.6 316.6 79.4L342.6 98.3 341.3 109.8 314.4 121.7 304.3 114.4 307.6 83.6C307.4 82.2 306.5 81 305.1 80.6 304.4 80.7 303.4 81.2 302.9 81.9 302.6 82.3 302.3 82.7 302.4 83.4L299.6 111 288.3 102.8 289.5 88.9C289.7 87.8 288.8 86.6 287.4 86.1 286.1 86.3 284.8 87.2 284.6 88.3L283.7 99.4 271.2 90.4C270.5 89.9 268.4 90.2 267.9 90.9 267 92.1 267.4 94.1 268.1 94.7L280.6 103.7 270.6 107.7C270.3 108.1 270 108.5 269.7 108.9 269.1 109.7 269 110.7 269.1 111.4 270 112.6 271.4 113.1 272.7 112.9L285.2 107.1 296.5 115.3 271.1 126.5C269.5 127.1 269.1 128.6 269.6 129.5 270.2 131.1 271.6 131.6 272.9 131.4L301.2 118.6 311.3 126 308.4 155.3 297.8 160.1 271.8 141.2C270.6 140.4 269.3 140.6 268.4 141.7 267.6 142.9 267.8 144.2 268.9 145.1L292.6 162.3 279.8 167.8 267.7 159C267 158.5 264.9 158.8 264.1 159.9 263.2 161.1 263.9 162.7 264.6 163.3L274.3 170.3 259.6 176.8C259.3 177.2 259.3 177.2 259 177.6 258.4 178.4 258.3 179.4 258.4 180.1 259.3 181.3 260.7 181.8 261.7 181.3ZM315.9 129.4L316.5 126.2 319 125.1 340.9 115.4 343.4 114.3 345.8 116 364.8 129.8 367.1 131.5 366.9 134.3 364.5 158 364.2 160.8 361.4 162.3 339.8 171.6 337 173.1 334.7 171.4 315.6 157.6 313.3 155.9 313.8 152.7 315.9 129.4Z" fill="rgba(51, 121, 194, 0.58)"></path><path d="M834 70.2L826.8 77.3 824.9 70.8C824.7 70.1 823.9 69.6 822.9 69.6 822.1 70.1 821.5 70.9 821.7 71.6L824.1 80.2 817.4 86.7 812.7 69.3C812.3 68.2 811.5 67.6 810.7 68.1 809.7 68.1 809.1 69 809.5 70.1L814.7 89.3 808.8 95.4 790 90.4 787.9 83.3 803 68.4C803.1 68.1 803.2 67.8 803.3 67.5 803.3 67.1 803.2 66.4 803 66.1 802.2 65.2 801.2 65.3 800.6 66.1L786.8 79.7 784.5 70.8 791.4 63.7C791.7 63.8 791.7 63.4 791.8 63.1 792 62.5 791.8 61.8 791.3 61.3 790.8 60.9 789.8 60.9 789 61.4L783.5 67.2 780.4 56.2C780.3 55.5 779.4 54.9 778.4 55 777.6 55.4 777.1 56.3 777.2 57L780.1 67.3 773.6 65.6C772.7 65.4 771.8 66.2 771.7 66.8 771.4 67.7 771.8 68.8 772.7 69L781.1 71.2 783.4 80.1 766.1 75.6C765.1 75.3 764.4 75.8 764.1 76.7 763.9 77.6 764.3 78.4 765.3 78.7L784.5 83.7 786.8 91.2 772.9 105.1 765.8 103.3 760.3 83.7C760.2 82.6 759.1 82 758.3 82.5 757.3 82.5 757.1 83.5 757.1 84.5L762 102.3 753.1 99.9 750.8 91.1C750.6 90.4 749.5 89.7 748.8 89.9S747.4 91.2 747.5 92.2L749.4 99 738.5 96.1C737.6 95.9 736.7 96.7 736.5 97.6 736.3 98.2 736.7 99.3 737.6 99.5L748.5 102.4 743.4 107.7C743 108.2 742.7 109.1 743.5 110 744 110.5 745.3 110.5 745.8 110L752.2 103.4 761.2 105.7 748.1 118.8C747.6 119.7 747.3 120.6 748.1 121.5 748.6 121.9 749.9 122 750.4 121.4L764.9 106.7 772 108.5 777.3 127.5 771.6 132.9 752.4 127.9C751.4 127.6 750.6 128.1 750.4 129 750.2 130 750.5 131 751.5 131.3L768.8 135.8 762.4 142.4 754.1 140.2C753.2 140 752.4 140.5 752.1 141.4 751.9 142.3 752.3 143.1 753.3 143.3L759.8 145 752.2 152.6C751.7 153.2 751.7 154.5 752.2 155 753.1 155.5 754 155.8 754.5 154.9L762.5 147.1 764.6 154.6C765 155.3 765.9 155.9 766.6 155.8 767.3 155.6 767.7 155.1 767.9 154.4 767.9 154.4 768 154.1 767.7 153.7L765.3 144.2 771.7 137.6 777 156.2C777.1 157.2 777.9 157.7 779 157.4 779.4 157.1 779.8 156.9 780 156.3 780.1 156 780.1 155.7 780.2 155.4L774.3 135 779.7 129.7 798.5 134.7 800.7 142.9 786.7 157.1C785.9 157.8 785.9 158.8 786.8 159.4 787.2 160.2 788.2 160.1 789.1 159.3L801.7 146.5 804.4 155.4 798.1 161.7C797.6 162.2 797.7 163.2 798.1 164 799 164.6 799.9 164.8 800.5 164L805.3 159.3 808.1 169C808.2 170 809.1 170.2 810.1 170.1 810.5 169.9 811 169.4 811.1 168.8 811.1 168.8 811.2 168.4 811.3 168.1L808.4 157.8 816.1 159.8C816.7 160 817.8 159.6 818.1 158.7 818.3 157.7 817.5 156.9 816.9 156.7L807.3 154.2 804.7 145.2 823.6 150.2C824.5 150.4 825.4 149.7 825.6 148.7S825.4 147 824.5 146.8L803.7 141.4 801.7 133.9 815.6 120 823.7 122.1 829 142C829.5 142.8 830.3 143.4 831.4 143.3 831.7 143.1 832.2 142.5 832.4 141.9 832.5 141.6 832.5 141.3 832.3 140.9L827.4 123.1 836.4 125.4 839 134.4C839.1 135.1 840 135.6 841 135.6 841.8 135.1 842.3 134.3 842.2 133.6L840.1 126.4 850 129C850.6 129.2 851.8 128.5 851.9 127.9 852.2 126.9 851.5 125.8 850.9 125.6L841 123 846.2 118.1C846.3 117.8 846.4 117.5 846.5 117.2 846.6 116.5 846.5 115.8 846.3 115.4 845.4 114.9 844.4 115 843.6 115.4L837.3 122 828.3 119.7 841.3 106.5C842.2 105.8 842.1 104.8 841.6 104.3 840.8 103.4 839.8 103.5 839 104L824.6 118.7 816.5 116.6 811.2 97.7 816.6 92.1 837.4 97.6C838.3 97.8 839.1 97.4 839.3 96.4 839.6 95.5 839.1 94.7 838.2 94.5L819.3 89.5 826 83 835.6 85.5C836.2 85.7 837.4 85 837.6 84.1 837.9 83.1 837.1 82.3 836.5 82.1L828.7 80.1 836.4 72.5C836.4 72.2 836.4 72.2 836.5 71.9 836.7 71.3 836.5 70.6 836.3 70.2 835.5 69.6 834.4 69.7 834 70.2ZM812.8 115.6L813.2 117.7 811.9 119 800.7 130.3 799.4 131.6 797.5 131.1 782.3 127.1 780.5 126.6 779.9 124.9 775.7 109.5 775.2 107.7 776.6 106.1 787.7 95.1 789.2 93.5 791 94 806.2 98 808 98.5 808.5 100.6 812.8 115.6Z" fill="rgba(51, 121, 194, 0.58)"></path><path d="M37.1 339.6L58.2 325.1 67.3 327 60.2 331.9C59.3 332.2 59.3 333.2 59.6 334.1 60.1 334.6 61.3 334.9 61.8 334.4L71.7 327.8 80.7 329.4 74.6 336.3 62.7 337.1C62.7 337.1 62.4 337.2 62.4 337.2 61.8 337.4 61.4 338.2 61.3 338.9 61.6 339.8 62.1 340.3 63.2 340.3L71.7 339.7 65.7 346.6 40.3 348.6C40.3 348.6 39.9 348.5 39.9 348.5 39.3 348.7 38.9 349.5 38.8 350.2 38.8 351.2 39.7 351.9 40.7 351.6L62.8 349.9 55.6 358.5 45.7 359.3C45.7 359.3 45.7 359.3 45.4 359.4 44.8 359.6 44.3 360.1 44.2 360.8 44.5 361.7 45.2 362.5 46.2 362.5L52.7 361.9 47.5 368.2C46.7 368.8 47 369.7 47.5 370.2 48.1 371 49.1 371 49.8 370.1L55.2 364.1 55.4 370.5C55.7 371.4 56.3 372.2 57.2 371.9 58.3 371.9 58.8 371.4 58.7 370.3L58 360.4 65.3 352.1 67 374.6C66.9 375.3 67.8 376 68.8 376 69.4 375.7 70.2 375.1 70.2 374.1L68.1 348.7 74.2 341.9 74.8 350.5C74.9 351.5 75.7 351.9 76.7 351.9 77.4 351.9 78.1 351 78.2 350.3L77.1 338.5 83.1 331.3 86.1 340.1 81 350.7C80.6 351.5 80.9 352.4 81.8 352.8 82.3 353.3 83.5 352.9 83.9 352.1L87.6 344.3 90.7 353.1 79.4 376C79 376.8 79.3 377.7 80.1 378.1 80.9 378.5 81.8 378.2 82.2 377.4L92.1 357.3 95.7 367.6 91.4 376.5C91 377.4 91.3 378.3 92.2 378.7 93 379 93.9 378.7 94.3 377.9L97.3 372.1 100 379.6C100.3 380.6 101.1 380.9 102 380.6 102.9 380.3 103.3 379.5 103 378.6L100.3 371 106.1 373.8C106.9 374.2 107.8 373.9 108.2 373.1S108.2 371.3 107.4 370.9L98.9 366.8 95.2 356.2 115.1 365.9C116 366.3 116.9 365.9 117.3 365.1 117.7 364.3 117.3 363.4 116.5 363L93.7 352 90.6 343.3 98.4 347C99.2 347.4 100.1 347.1 100.5 346.2 100.9 345.4 100.6 344.5 99.7 344.1L89.1 339 86.2 330.6 94.9 332.3 101.7 342.1C102.3 342.6 103.4 342.9 103.9 342.3 104.7 341.7 104.8 341 104.4 340.1L99.6 333 108.3 334.7 122.8 355.7C123.4 356.5 124.1 356.6 125 356.3 125.8 355.7 125.8 354.7 125.6 354.1L113 335.4 123.9 337.7 129.4 345.6C129.7 346.5 130.7 346.5 131.7 346.2 132.2 345.7 132.4 344.6 131.8 343.8L128.3 338.5 136.2 339.8C137 340.2 137.8 339.6 138.1 338.5 138.2 337.8 137.6 337 136.9 336.9L128.9 335.3 134.4 331.7C135.2 331.1 135.2 330 134.6 329.5 134.3 328.6 133.6 328.6 133 328.8 132.7 328.9 132.7 328.9 132.4 329L124.5 334.5 113.5 332.2 131.9 319.7C132.8 319.4 132.8 318.3 132.4 317.4 131.9 316.9 131.2 316.8 130.6 317.1 130.3 317.2 130.3 317.2 130.3 317.2L108.9 331.4 100.1 329.8 107.3 324.9C108.1 324.3 108.1 323.6 107.8 322.7 107.3 322.2 106.5 321.8 105.9 322 105.6 322.1 105.6 322.1 105.3 322.2L95.5 329 86.7 327.3 92.5 320.6 104.3 319.5C105.4 319.5 106 318.5 106.1 317.8 105.8 316.9 105.2 316.1 104.3 316.4L95.7 317.1 101.4 310 127.1 308.1C127.9 308.2 128.6 307.3 128.6 306.6 128.3 305.7 127.7 304.9 126.7 304.9L104.6 306.5 111.8 298.2 121.4 297.6C122.4 297.5 123.1 296.6 122.8 295.7 122.9 295 122.3 294.2 121.3 294.2L114.7 294.8 120 288.6C120.5 288.1 120.5 287 119.8 286.2 119.4 286.1 118.7 286 118.1 286.2 118.1 286.2 117.8 286.3 117.5 286.4L112.2 292.6 111.6 286.1C111.7 285.4 110.8 284.7 110.1 284.6 109.8 284.7 109.8 284.7 109.8 284.7 108.9 285 108.5 285.8 108.7 286.4L109.4 296 102.2 304.6 100.5 282.2C100.1 281.3 99.6 280.8 98.6 280.8 98.6 280.8 98.3 280.9 98.3 280.9 97.7 281.1 97.2 281.6 97.2 282.6L99 308.1 93.2 314.9 92.6 306.3C92.3 305.4 91.7 304.6 90.8 304.9 90.7 304.6 90.4 304.7 90.4 304.7 89.8 304.9 89.4 305.7 89.3 306.4L90.4 318.3 84.3 325.1 81.3 316.7 86.4 306.1C86.8 305.3 86.4 304 85.6 303.7 84.9 303.6 84 303.9 83.5 304.4L79.8 312.4 76.8 303.7 87.8 280.9C88.2 280 87.9 279.1 87 278.7 86.2 278.3 85.3 278.7 84.9 279.5L75.3 299.5 71.6 288.9 75.7 280.3C76.1 279.5 75.8 278.6 75 278.2S73.3 278.1 72.9 278.9L70.1 284.7 67.5 277.1C67.2 276.2 66.4 275.8 65.4 276.1 64.5 276.4 64.1 277.3 64.5 278.2L67.1 285.7 61.1 283.1C60.7 282.9 60.3 282.7 60 282.8 59.7 282.9 59.2 283.4 59 283.8 58.6 284.6 58.9 285.5 59.7 285.9L68.6 289.9 72.3 300.5 52 291C51.6 290.8 51.2 290.6 50.9 290.7 50.6 290.8 50.1 291.3 49.9 291.7 49.5 292.5 49.8 293.5 50.6 293.8L73.8 304.7 76.8 313.5 69 309.5C68.6 309.3 68 309.5 67.7 309.6 67.4 309.7 67.1 309.8 66.9 310.2 66.5 311 66.9 312.2 67.6 312.3L78.3 317.7 81.3 326.2 72.2 324.6 65.7 314.7C65.2 314.2 64.4 313.8 63.8 314 63.5 314.1 63.5 314.1 63.6 314.4 62.7 314.7 62.4 315.8 63 316.6L67.9 323.8 58.8 322.2 44.6 300.7C44 300.2 43.3 300.1 42.7 300.3 42.4 300.4 42.4 300.4 42.4 300.4 41.6 301.1 41.2 301.9 41.9 302.7L54.5 321.3 43.5 319.1 38 311.1C37.4 310.3 36.7 310.2 36.1 310.5 36.1 310.5 35.8 310.6 35.8 310.6 35 311.2 35 312.2 35.2 312.8L39.1 318.2 31.1 316.6C30.8 316.7 30.5 316.8 30.2 316.9 29.9 317 29.4 317.5 29.2 317.9 29.2 319 29.6 319.9 30.6 319.8L38.6 321.5 33.1 325.1C32.3 325.7 32.3 326.7 32.5 327.3 33.1 328.1 34.1 328.1 35 327.8L43 322.3 53.8 324.3 35.5 336.8C34.7 337.4 34.4 338.5 34.9 339 35.5 339.8 36.3 340.2 37.1 339.6Z" fill="rgba(51, 121, 194, 0.58)"></path><path d="M762.4 537.3L753.3 533.1 758.6 529C759.2 528.6 759.5 527.6 759 526.7 758.3 526.1 757.3 525.9 756.7 526.3L749.6 531.5 741.1 527.6 755.8 517.1C756.7 516.3 756.9 515.3 756.2 514.8 755.8 513.8 754.8 513.6 753.9 514.4L737.7 526 730 522.6 728 503.2 734 498.7 753.2 507.7C753.5 507.6 753.9 507.6 754.2 507.6 754.5 507.5 755.1 507.2 755.4 506.8 755.9 505.8 755.5 504.9 754.5 504.6L737 496.5 744.5 491.2 753.5 495.1C753.6 495.4 753.9 495.4 754.2 495.3 754.8 495.3 755.4 494.9 755.7 494.2 756 493.6 755.5 492.6 754.8 492.1L747.4 489 756.7 482.2C757.3 481.8 757.5 480.8 757.1 479.9 756.4 479.4 755.4 479.1 754.8 479.5L746.2 485.9 745.5 479.2C745.4 478.2 744.4 477.7 743.7 477.8 742.8 477.9 741.9 478.6 742 479.6L742.9 488.1 735.4 493.4 733.5 475.6C733.4 474.6 732.7 474.1 731.8 474.2 730.8 474.3 730.2 475 730.3 475.9L732.4 495.7 726.1 500.5 708.2 492.4 707.5 485 723.9 473C724.9 472.6 725 471.3 724.3 470.8 723.9 469.8 723 469.9 722 470.3L707.1 481.2 706.1 472 713.6 466.7C714.2 466.3 714.4 465 714 464.4S712.3 463.6 711.4 464L705.7 468.2 704.6 457C704.5 456.1 703.5 455.5 702.5 455.6 701.9 455.7 701 456.4 701.1 457.4L702.2 468.5 695.5 465.7C694.8 465.4 693.9 465.5 693.3 466.5 693.1 467.2 693.5 468.4 694.2 468.7L702.6 472.3 703.6 481.6 686.7 474C685.7 473.8 684.8 473.9 684.2 474.9 684 475.5 684.4 476.8 685.1 477L704 485.4 704.7 492.7 688.9 504.3 681.8 500.9 679.7 481.1C679.6 480.2 678.9 479.6 678 479.7 677 479.8 676.1 480.5 676.2 481.5L678.1 499.3 669.6 495.7 668.8 487.1C668.7 486.1 668 485.6 667 485.7 666 485.8 665.5 486.5 665.6 487.4L666.3 494.1 656.5 489.6C655.8 489.4 654.6 489.8 654.3 490.5 654.1 491.5 654.2 492.4 655.2 492.7L665.3 497.4 659 501.9C658.4 502.6 658.2 503.6 658.6 504.2 659 504.8 659.7 505.1 660.3 505 660.3 505 660.6 505 660.9 504.6L669 499 677.4 502.6 661.9 514.2C661 514.6 660.7 515.6 661.5 516.5 661.8 516.7 662.2 517 662.8 517 663.1 516.9 663.5 516.9 663.8 516.9L680.8 504.2 687.6 507.3 689.6 526.8 682.7 531.7 664.5 523.6C663.4 523 662.5 523.4 662.3 524.4 661.7 525.1 662.1 526 663.2 526.6L679.7 533.9 672.2 539.5 664.1 535.8C663.4 535.6 662.5 536 662 536.7 661.7 537.7 661.8 538.6 662.8 538.8L668.9 541.8 660.8 547.7C659.9 548.1 660 549.1 660.4 550 660.8 550.3 661.4 550.6 662.1 550.5 662.1 550.5 662.4 550.5 662.7 550.4L671.4 544.1 672.2 552C672.3 552.7 673 553.6 674 553.5 674.9 553.4 675.5 552.3 675.4 551.7L674.4 541.8 681.9 536.2 683.8 555.7C683.9 556.6 685 557.2 685.9 557.1S687.4 556.3 687.3 555.3L685.2 534 691.4 529.5 709.3 537.6 710.2 545.9 693.4 557.9C692.8 558.6 692.6 559.6 693 560.5 693.4 560.8 694.1 561 694.7 561 695 560.9 695.3 560.9 695.6 560.6L710.6 549.7 711.5 558.9 704.1 564.5C703.5 564.9 703.2 565.9 703.7 566.8 704.4 567.4 705.3 567.6 705.9 567.2L711.9 562.7 713 572.9C713 573.6 714.1 574.4 714.7 574.4 715.7 574.3 716.5 573.2 716.5 572.6L715.4 562.4 721.9 565.6C722.2 565.5 722.5 565.5 722.8 565.5 723.5 565.4 724.1 565 724.3 564.7 724.6 563.7 724.1 562.8 723.4 562.2L715 558.6 714.1 549.3 730.9 556.9C732 557.5 732.9 557 733.1 556.4 733.7 555.4 733.3 554.4 732.6 553.9L713.7 545.5 712.8 537.2 728.7 525.6 735.8 528.8 738 550.1C738.1 551 738.8 551.6 739.7 551.5 740.7 551.4 741.2 550.7 741.1 549.8L739.1 530.3 747.6 534.3 748.6 544.2C748.7 544.8 749.7 545.7 750.7 545.6 751.6 545.5 752.2 544.5 752.1 543.8L751.3 535.9 761.1 540.3C761.4 540.3 761.4 540.3 761.7 540.3 762.4 540.2 763 539.8 763.2 539.5 763.5 538.5 763 537.5 762.4 537.3ZM712.4 533.4L710.6 534.6 708.9 533.8 694.4 527.2 692.7 526.4 692.5 524.5 690.9 508.9 690.7 507 692.2 505.9 705.1 496.5 706.6 495.4 708.6 496.2 722.8 502.8 724.8 503.5 725 505.4 726.6 521 726.8 522.9 725 524.1 712.4 533.4Z" fill="rgba(51, 121, 194, 0.58)"></path><path d="M282.6 473.7L256.2 472.3 251.1 467 256.1 451.4 263.3 449.7 285.6 464.2C285.9 464.3 285.9 464.3 286.2 464.4 286.8 464.6 287.5 464.5 288.1 463.7 288.4 462.8 288.3 462 287.5 461.5L268 448.9 279.2 446.4 287.9 451.8C287.9 451.8 288.2 451.9 288.2 451.9 288.8 452.1 289.5 452 290.1 451.2 290.6 450.7 290.3 449.6 289.4 449L283.9 445.2 292.2 443.5C292.9 443.4 293.5 442.5 293.5 441.5S292.3 440.1 291.2 440.1L283.3 442 286.7 436.4C287.3 435.5 287 434.4 286.2 433.8 285.6 433.6 284.6 433.7 284 434.5L278.5 443.2 267 445.5 279.6 426C280.2 425.2 279.9 424.1 279.4 423.6 278.5 423.3 277.5 423.3 276.9 424.1L262.7 446.5 255.1 448.1 244.4 436.3 246.8 429 270.2 416.6C271 416.2 271.3 415.3 270.9 414.5S269.5 413.4 268.7 413.8L248.1 424.7 251.7 413.5 260.6 408.9C261.4 408.5 261.7 407.6 261.3 406.4S260 405.3 259.2 405.8L253.1 409.2 255.7 401C256 400 255.3 399.1 254.4 398.8 253.4 398.6 252.6 399 252.4 399.9L249.7 408.1 246.6 402.1C246.3 401 245.4 400.7 244.5 401.4 243.7 401.8 243.4 402.7 243.8 403.5L248.4 412.4 244.8 423.7 234.3 402.9C233.9 402.1 232.6 401.7 231.8 402.1S230.7 403.4 231.2 404.2L243.4 427.9 241.1 435.3 225.2 438.6 220.3 433 221.7 406.6C221.7 405.6 220.8 405 219.9 404.7 218.9 404.7 218.3 405.5 218 406.4L217 429.6 209.3 421.1 209.9 410.9C209.9 409.9 209.1 409.3 208.1 409 207.4 409.1 206.5 409.8 206.6 410.8L206.1 417.4 200.4 411.2C199.9 410.7 198.9 410.7 198.1 411.1 197.5 412 197.5 413 198 413.5L203.7 419.7 196.8 419.4C196 419.6 195.1 420.3 195.3 421 195 421.9 195.5 422.4 196.4 422.7 196.4 422.7 196.7 422.8 196.7 422.8L206.9 423.4 214.6 431.9 191.4 430.9C190.4 430.9 189.6 431.3 189.6 432.3 189.6 433.3 190.2 433.8 190.8 434 191.1 434.1 191.1 434.1 191.1 434.1L217.9 435.3 222.8 440.9 217.9 456.4 210.7 457.8 188.1 443.6C187.6 443.1 186.4 443.4 185.9 443.9 185.3 444.7 185.7 445.8 186.5 446.4L206 459 194.8 461.5 186.1 456C185.3 455.4 184.3 455.4 184 456.4 183.4 457.2 183.7 458.3 184.2 458.8L190.1 462.3 181.9 464.1C181.1 464.5 180.5 465.3 180.5 466.3 180.7 466.7 181.2 467.2 181.8 467.4 182.1 467.5 182.1 467.5 182.5 467.3L190.8 465.6 187.2 471.5C186.6 472.3 187 473.1 187.6 473.6 187.9 473.7 187.9 473.7 188.2 473.8 188.8 474 189.5 473.9 190 473.4L195.4 464.7 206.6 462.2 194 481.7C193.7 482.6 193.8 483.7 194.7 483.9 194.9 484.3 194.9 484.3 195.2 484.4 195.8 484.6 196.6 484.2 197.1 483.7L211.4 461.1 218.5 459.6 229.5 471.5 227.3 478.5 203.6 490.8C202.8 491.2 202.4 492.4 202.8 493.2S204.4 494.4 205.2 494L225.8 483.1 222.3 494.1 213.4 499C212.6 499.4 212.3 500.3 212.7 501.1 213.1 501.9 214 502.2 214.9 501.8L220.9 498.7 218.3 506.9C218.1 507.5 218.4 508.6 219.3 508.9 220.2 509.2 221.4 508.6 221.6 508L224.2 499.7 227.4 505.8C227.6 506.2 227.8 506.6 228.1 506.7 228.7 506.9 229.1 506.7 229.5 506.5 230.3 506 230.6 505.1 230.2 504.3L225.7 495.2 229.2 484.2 239.7 505C239.9 505.4 240.2 505.5 240.8 505.7 241.1 505.8 241.4 505.9 241.8 505.7 242.6 505.3 243 504 242.6 503.2L230.6 479.6 232.9 472.6 248.4 469.2 253.8 474.6 252.3 501.3C252.4 502 252.8 502.8 253.4 503 253.7 503.1 253.7 503.1 253.8 502.8 254.7 503.1 255.6 502.4 255.6 501.3L256.6 478.2 264.6 486.8 264.1 497C264.2 497.7 264.7 498.2 265.3 498.4 265.3 498.4 265.6 498.5 265.6 498.5 266.5 498.8 267.4 498.1 267.4 497L267.6 490.1 273.4 496.3C273.6 496.7 273.9 496.7 274.2 496.8 274.8 497 275.5 496.9 275.6 496.6 276.5 495.9 276.5 494.9 276.1 494.1L270.3 487.9 276.9 488.3C277.9 488.3 278.8 487.6 278.8 486.6 278.7 485.9 278 485 277.3 485.1L267 484.5 259.3 476 282.5 477C283.5 477 284.1 476.2 284.4 475.3 284.3 474.5 283.6 473.6 282.6 473.7ZM252.1 452.2L248.4 464.1 247.8 465.9 246 466.4 234 468.9 231.9 469.3 230.7 467.9 222.5 458.9 221.2 457.5 221.8 455.6 225.6 443.8 226.2 441.9 228 441.5 239.9 438.9 241.7 438.5 243.3 440 251.5 449 252.7 450.4 252.1 452.2Z" fill="rgba(51, 121, 194, 0.58)"></path><path d="M1363 457.1L1361 467 1355.8 462.7C1355.2 462.2 1354.2 462.2 1353.4 462.8 1353 463.6 1353 464.6 1353.6 465.1L1360.3 470.9 1358.3 480 1344.8 468.1C1343.9 467.4 1342.8 467.4 1342.4 468.2 1341.6 468.8 1341.6 469.8 1342.6 470.5L1357.5 483.7 1356 492 1337.5 498.3 1331.8 493.5 1336.2 472.7C1336.1 472.4 1336 472.1 1335.9 471.8 1335.8 471.5 1335.3 471 1334.9 470.8 1333.8 470.5 1332.9 471.1 1333 472.1L1328.9 491.1 1322.1 485 1323.9 475.2C1324.2 475.1 1324.1 474.8 1324 474.5 1323.8 473.9 1323.3 473.4 1322.5 473.3 1321.8 473.2 1321 473.8 1320.6 474.6L1319.3 482.6 1310.6 475C1310.1 474.5 1309.1 474.5 1308.3 475.1 1307.9 476 1307.9 477 1308.4 477.5L1316.5 484.5 1310.2 486.7C1309.3 487 1309 488.1 1309.2 488.7 1309.5 489.6 1310.4 490.3 1311.3 490L1319.5 487.2 1326.3 493.3 1309.4 499.1C1308.5 499.4 1308.1 500.2 1308.4 501.1 1308.7 502.1 1309.5 502.5 1310.4 502.1L1329.2 495.7 1335.3 500.8 1331.4 520 1324.4 522.4 1309 509C1308.4 508.2 1307.1 508.3 1306.7 509.2 1305.9 509.8 1306.2 510.7 1306.8 511.5L1320.8 523.6 1312 526.6 1305.2 520.5C1304.7 520 1303.3 520.1 1302.8 520.6S1302.4 522.4 1303.1 523.2L1308.4 527.9 1297.8 531.5C1296.8 531.8 1296.6 532.9 1296.9 533.8 1297.1 534.4 1298 535.1 1298.9 534.8L1309.5 531.2 1308.2 538.4C1308.1 539.1 1308.4 540 1309.6 540.3 1310.3 540.4 1311.4 539.7 1311.5 539L1313.1 530 1321.9 527 1318.3 545.1C1318.3 546.1 1318.6 547 1319.7 547.3 1320.4 547.4 1321.5 546.7 1321.6 546L1325.5 525.7 1332.5 523.3 1347.4 536.2 1345.6 543.9 1326.8 550.3C1325.9 550.6 1325.5 551.4 1325.8 552.3 1326.1 553.2 1327.1 553.9 1328 553.6L1344.9 547.8 1343.3 556.9 1335.1 559.7C1334.2 560 1333.8 560.8 1334.1 561.7 1334.4 562.6 1335.2 563 1336.1 562.7L1342.5 560.5 1340.3 571C1340.2 571.8 1341 572.9 1341.7 573 1342.7 573 1343.6 572.6 1343.6 571.6L1345.9 560.7 1351.7 565.8C1352.5 566.2 1353.6 566.2 1354.1 565.7 1354.6 565.2 1354.7 564.5 1354.5 563.9 1354.5 563.9 1354.3 563.6 1353.9 563.4L1346.6 556.7 1348.3 547.7 1363 560.3C1363.6 561.1 1364.7 561.1 1365.4 560.1 1365.6 559.7 1365.8 559.3 1365.5 558.7 1365.4 558.4 1365.3 558.1 1365.2 557.8L1349 544.1 1350.6 536.8 1369.1 530.5 1375.4 536.1 1371.6 555.6C1371.3 556.8 1371.9 557.6 1372.9 557.6 1373.7 558 1374.5 557.3 1374.8 556.2L1378.3 538.5 1385.4 544.5 1383.6 553.2C1383.5 553.9 1384.1 554.8 1385 555.1 1386 555.1 1386.9 554.8 1386.9 553.8L1388.3 547.2 1396 553.8C1396.6 554.6 1397.5 554.3 1398.3 553.6 1398.5 553.2 1398.6 552.5 1398.4 551.9 1398.4 551.9 1398.3 551.6 1398.2 551.3L1390 544.3 1397.6 541.7C1398.2 541.5 1398.9 540.6 1398.6 539.7 1398.3 538.8 1397.2 538.5 1396.6 538.7L1387.2 541.9 1380.1 535.9 1398.5 529.6C1399.4 529.2 1399.7 528.1 1399.4 527.2S1398.3 525.9 1397.4 526.2L1377.1 533.1 1371.3 528 1375.2 508.8 1383.1 506.1 1398.6 519.7C1399.4 520.1 1400.4 520.1 1401.2 519.5 1401.4 519.1 1401.5 518.4 1401.3 517.8 1401.2 517.5 1401.1 517.2 1400.7 517L1386.7 504.8 1395.5 501.8 1402.6 507.9C1403.1 508.4 1404.2 508.4 1405 507.7 1405.4 506.9 1405.3 505.9 1404.8 505.4L1399.1 500.6 1408.8 497.3C1409.4 497.1 1410 495.9 1409.8 495.3 1409.5 494.4 1408.3 493.8 1407.7 494L1398 497.3 1399.7 490.3C1399.6 490 1399.5 489.7 1399.4 489.4 1399.2 488.8 1398.6 488.3 1398.2 488.1 1397.2 488.1 1396.4 488.7 1396 489.5L1394.4 498.5 1385.6 501.5 1389.2 483.4C1389.5 482.3 1388.9 481.5 1388.2 481.4 1387.1 481.1 1386.3 481.7 1385.9 482.5L1381.9 502.8 1374.1 505.4 1359.2 492.6 1360.7 485 1381 478.1C1381.9 477.8 1382.3 476.9 1382 476 1381.7 475.1 1380.8 474.7 1379.9 475L1361.5 481.3 1363.4 472.2 1372.8 469C1373.4 468.8 1374 467.6 1373.7 466.7 1373.4 465.8 1372.3 465.5 1371.7 465.7L1364.1 468.3 1366.2 457.7C1366.1 457.4 1366.1 457.4 1366 457.1 1365.8 456.5 1365.3 456 1364.9 455.8 1363.9 455.8 1363.1 456.4 1363 457.1ZM1370.4 506.7L1372 508.2 1371.6 510 1368.4 525.6 1368.1 527.4 1366.2 528.1 1351.4 533.1 1349.6 533.7 1348.2 532.5 1336.1 522.1 1334.7 520.9 1335 518.8 1338.2 503.5 1338.5 501.3 1340.3 500.7 1355.2 495.7 1357 495 1358.5 496.5 1370.4 506.7Z" fill="rgba(51, 121, 194, 0.58)"></path></g><defs><mask id="SvgjsMask1016"><rect width="1440" height="560" fill="#ffffff"></rect></mask><linearGradient x1="15.28%" y1="-39.29%" x2="84.72%" y2="139.29%" gradientUnits="userSpaceOnUse" id="SvgjsLinearGradient1017"><stop stop-color="#0e2a47" offset="0"></stop><stop stop-color="#00459e" offset="1"></stop></linearGradient><filter id="SvgjsFilter1018"><feGaussianBlur stdDeviation="1"></feGaussianBlur></filter></defs></svg>