<svg xmlns="http://www.w3.org/2000/svg" version="1.1" xmlns:xlink="http://www.w3.org/1999/xlink" xmlns:svgjs="http://svgjs.com/svgjs" width="1440" height="560" preserveAspectRatio="none" viewBox="0 0 1440 560"><g mask="url(&quot;#SvgjsMask1000&quot;)" fill="none"><rect width="1440" height="560" x="0" y="0" fill="#1e3266"></rect><path d="M1536 560L0 560 L0 313.23Q60.64 301.88, 72 362.52Q78.13 296.65, 144 302.79Q197.65 236.44, 264 290.09Q350.99 257.08, 384 344.07Q435.11 275.18, 504 326.29Q517.96 268.25, 576 282.22Q623.86 258.08, 648 305.94Q678.09 264.03, 720 294.12Q768.15 270.27, 792 318.43Q871.13 277.56, 912 356.68Q936.13 260.81, 1032 284.95Q1075.19 256.14, 1104 299.33Q1172.24 295.57, 1176 363.81Q1242.92 310.74, 1296 377.66Q1320.6 282.25, 1416 306.85Q1484.82 255.67, 1536 324.48z" fill="#182f5d"></path><path d="M1464 560L0 560 L0 354.9Q55.88 338.77, 72 394.65Q144.78 347.43, 192 420.21Q218.06 326.27, 312 352.34Q393.4 313.74, 432 395.13Q512.26 355.39, 552 435.65Q569.25 332.9, 672 350.15Q739.15 297.3, 792 364.46Q859.71 312.17, 912 379.88Q997.19 345.07, 1032 430.26Q1053.45 331.72, 1152 353.17Q1222.72 303.89, 1272 374.62Q1357.03 339.65, 1392 424.68Q1417.04 377.72, 1464 402.76z" fill="#25467d"></path><path d="M1512 560L0 560 L0 461.19Q19.4 408.59, 72 427.98Q118.86 402.84, 144 449.69Q222.37 408.06, 264 486.42Q293.77 444.19, 336 473.96Q388.28 406.24, 456 458.51Q510.69 441.19, 528 495.88Q575.51 423.39, 648 470.9Q694.27 397.17, 768 443.45Q850.88 406.32, 888 489.2Q942.89 424.09, 1008 478.98Q1081.95 432.94, 1128 506.89Q1135.2 442.09, 1200 449.29Q1266.32 395.61, 1320 461.92Q1363.78 385.7, 1440 429.48Q1486.21 403.69, 1512 449.9z" fill="#356cb1"></path><path d="M1512 560L0 560 L0 526.59Q55.73 510.32, 72 566.05Q115.98 538.02, 144 582Q160.71 478.71, 264 495.41Q331.56 442.97, 384 510.53Q436.88 491.4, 456 544.28Q505.81 522.09, 528 571.89Q544.03 515.92, 600 531.95Q650.21 462.16, 720 512.37Q778.3 498.67, 792 556.97Q822.95 467.92, 912 498.88Q955 469.88, 984 512.89Q1039.17 496.07, 1056 551.24Q1106.56 529.8, 1128 580.36Q1181.07 513.43, 1248 566.51Q1260.48 506.99, 1320 519.47Q1367.84 447.31, 1440 495.15Q1498.82 481.96, 1512 540.78z" fill="white"></path></g><defs><mask id="SvgjsMask1000"><rect width="1440" height="560" fill="#ffffff"></rect></mask></defs></svg>